<svg xmlns="http://www.w3.org/2000/svg" width="100" height="100" viewBox="0 0 100 100">
  <g id="Amazon" transform="translate(-6054 -10525)">
    <rect id="Rectangle_98" data-name="Rectangle 98" width="100" height="100" transform="translate(6054 10525)" fill="#fff" opacity="0"/>
    <g id="amazon-icon-1" transform="translate(6059.82 10529.471)">
      <path id="Path_15" data-name="Path 15" d="M81.994,197.427c-37.584,17.887-60.909,2.921-75.84-6.168-.924-.573-2.494.134-1.132,1.7C10,198.989,26.3,213.527,47.577,213.527s33.961-11.619,35.545-13.645c1.574-2.01.462-3.118-1.129-2.454ZM92.549,191.6c-1.009-1.314-6.137-1.559-9.364-1.163s-8.084,2.36-7.662,3.546c.216.444.658.245,2.879.045,2.226-.222,8.464-1.009,9.763.69s-1.989,9.86-2.591,11.174c-.581,1.314.222,1.653,1.314.778a17.047,17.047,0,0,0,4.336-6.348c1.3-3.224,2.092-7.722,1.325-8.723Z" transform="translate(-4.489 -122.468)" fill="#f90"/>
      <path id="Path_16" data-name="Path 16" d="M86.85,38.9c0,4.693.119,8.607-2.254,12.775-1.915,3.389-4.948,5.473-8.336,5.473-4.626,0-7.32-3.524-7.32-8.726,0-10.268,9.2-12.131,17.909-12.131ZM99,68.262a2.515,2.515,0,0,1-2.846.288c-4-3.321-4.71-4.862-6.913-8.031-6.608,6.744-11.284,8.76-19.857,8.76-10.132,0-18.028-6.252-18.028-18.773,0-9.776,5.3-16.435,12.843-19.688,6.54-2.881,15.673-3.389,22.654-4.185V25.074c0-2.864.22-6.252-1.457-8.726-1.474-2.22-4.287-3.135-6.761-3.135-4.591,0-8.692,2.355-9.691,7.235a2.521,2.521,0,0,1-2.084,2.2L55.166,21.4a2.134,2.134,0,0,1-1.8-2.525C56.064,4.708,68.856.438,80.31.438c5.863,0,13.521,1.559,18.146,6,5.863,5.473,5.3,12.775,5.3,20.721V45.931c0,5.642,2.338,8.116,4.541,11.166.779,1.084.949,2.389-.034,3.2-2.457,2.05-6.828,5.862-9.234,8L99,68.262" transform="translate(-34.616 -0.438)" fill-rule="evenodd"/>
      <path id="Path_17" data-name="Path 17" d="M81.994,197.427c-37.584,17.887-60.909,2.921-75.84-6.168-.924-.573-2.494.134-1.132,1.7C10,198.989,26.3,213.527,47.577,213.527s33.961-11.619,35.545-13.645c1.574-2.01.462-3.118-1.129-2.454ZM92.549,191.6c-1.009-1.314-6.137-1.559-9.364-1.163s-8.084,2.36-7.662,3.546c.216.444.658.245,2.879.045,2.226-.222,8.464-1.009,9.763.69s-1.989,9.86-2.591,11.174c-.581,1.314.222,1.653,1.314.778a17.047,17.047,0,0,0,4.336-6.348c1.3-3.224,2.092-7.722,1.325-8.723Z" transform="translate(-4.489 -122.468)" fill="#f90"/>
      <path id="Path_18" data-name="Path 18" d="M86.85,38.9c0,4.693.119,8.607-2.254,12.775-1.915,3.389-4.948,5.473-8.336,5.473-4.626,0-7.32-3.524-7.32-8.726,0-10.268,9.2-12.131,17.909-12.131ZM99,68.262a2.515,2.515,0,0,1-2.846.288c-4-3.321-4.71-4.862-6.913-8.031-6.608,6.744-11.284,8.76-19.857,8.76-10.132,0-18.028-6.252-18.028-18.773,0-9.776,5.3-16.435,12.843-19.688,6.54-2.881,15.673-3.389,22.654-4.185V25.074c0-2.864.22-6.252-1.457-8.726-1.474-2.22-4.287-3.135-6.761-3.135-4.591,0-8.692,2.355-9.691,7.235a2.521,2.521,0,0,1-2.084,2.2L55.166,21.4a2.134,2.134,0,0,1-1.8-2.525C56.064,4.708,68.856.438,80.31.438c5.863,0,13.521,1.559,18.146,6,5.863,5.473,5.3,12.775,5.3,20.721V45.931c0,5.642,2.338,8.116,4.541,11.166.779,1.084.949,2.389-.034,3.2-2.457,2.05-6.828,5.862-9.234,8L99,68.262" transform="translate(-34.616 -0.438)" fill-rule="evenodd"/>
    </g>
  </g>
</svg>
