<svg id="Buy_Now" data-name="Buy Now" xmlns="http://www.w3.org/2000/svg" width="100" height="100" viewBox="0 0 100 100">
  <path id="Path_13" data-name="Path 13" d="M0,0H100V100H0Z" fill="none"/>
  <path id="Path_14" data-name="Path 14" d="M18.667,31.167H76.742l2.083-8.333H27V14.5H84.167a4.167,4.167,0,0,1,4.042,5.179L77.792,61.346A4.167,4.167,0,0,1,73.75,64.5H14.5a4.167,4.167,0,0,1-4.167-4.167v-50H2V2H14.5a4.167,4.167,0,0,1,4.167,4.167Zm0,58.333A8.333,8.333,0,1,1,27,81.167,8.333,8.333,0,0,1,18.667,89.5Zm50,0A8.333,8.333,0,1,1,77,81.167,8.333,8.333,0,0,1,68.667,89.5Z" transform="translate(6.333 6.333)"/>
</svg>
