<svg xmlns="http://www.w3.org/2000/svg" width="70" height="70" viewBox="0 0 70 70">
  <g id="Clothes" transform="translate(-790 -1187)">
    <g id="Rectangle_29" data-name="Rectangle 29" transform="translate(790 1187)" fill="#fff" stroke="#707070" stroke-width="1" opacity="0">
      <rect width="70" height="70" stroke="none"/>
      <rect x="0.5" y="0.5" width="69" height="69" fill="none"/>
    </g>
    <path id="Group_18532" data-name="Group 18532" d="M10.3,24.3C5.089,29.515,5,29.613,5,30.152s.087.635,2.367,2.9c2.989,2.971,2.781,2.925,4.735,1.055,1.411-1.35,1.664-1.472,2.378-1.147a1.188,1.188,0,0,1,.486.444c.109.209.162,4.508.186,15.081l.033,14.789.331.353.332.353H31.239l.139-.513c.076-.282.364-1.282.64-2.222.495-1.688.5-1.748.591-4.922.1-3.568.148-3.787,1.045-4.78,1.025-1.135,1.143-1.162,5.286-1.21l3.657-.042V42.161c0-8.671.013-8.857.663-9.2a1.808,1.808,0,0,1,.708-.148c.361,0,.654.215,1.773,1.3,1.946,1.886,1.754,1.929,4.747-1.064,2.254-2.254,2.363-2.387,2.363-2.9s-.132-.667-5.294-5.84L42.264,19H37.676v.348a11.121,11.121,0,0,1-.213,1.4,8.715,8.715,0,0,1-17.217-.894l-.1-.854H15.591Zm12.478-4.769a6.461,6.461,0,0,0,2.356,4.4,6.237,6.237,0,0,0,9.378-2.222,5.856,5.856,0,0,0,.593-2.647c-.038-.038-2.827-.068-6.2-.068h-6.13ZM37.3,29.343a4.368,4.368,0,0,1,.222,8.044,3.126,3.126,0,0,1-1.946.315,4.132,4.132,0,0,1-3.73-2.41,4.791,4.791,0,0,1-.088-3.593,4.624,4.624,0,0,1,3.316-2.579A4.361,4.361,0,0,1,37.3,29.343Zm-2.449,2.5a1.667,1.667,0,0,0-.885,1.578,1.728,1.728,0,0,0,2,1.8,1.358,1.358,0,0,0,1.12-.543,1.67,1.67,0,0,0,.339-2.079,2.349,2.349,0,0,0-.691-.794A1.974,1.974,0,0,0,34.846,31.846Zm.789,21.278-.421.354v4.351h32.4V53.569l-.4-.4-.4-.4H36.056Zm-3.4,16.632c-1.445,5.208-2.625,9.642-2.624,9.854a1.147,1.147,0,0,0,.523,1.036c.273.146,15.457,3.022,15.956,3.022.731,0,.921-.4,2.6-5.425,1.153-3.462,1.691-4.893,1.918-5.106a1.224,1.224,0,0,1,1.638.025A34.222,34.222,0,0,1,54.146,78.3c1.307,3.938,1.663,4.868,1.948,5.093a1.324,1.324,0,0,0,.57.282c.544.017,16.832-3.1,16.838-3.22,0-.075-1.242-4.643-2.768-10.151L67.96,60.289H58.081c-5.433,0-9.878.047-9.878.105s.646,2.041,1.436,4.407c1.294,3.878,1.421,4.346,1.288,4.748a1.164,1.164,0,0,1-1.167.857c-.857,0-.949-.183-2.653-5.277l-1.6-4.772-5.327-.036-5.327-.036Zm34.209.991a4.11,4.11,0,0,1,2.379,3.708A3.126,3.126,0,0,1,68.5,76.4a4.306,4.306,0,0,1-7.215,1.118,4.36,4.36,0,0,1,2.083-7.072A4.855,4.855,0,0,1,66.44,70.747Zm-2.361,2.132A1.9,1.9,0,0,0,62.9,75.543a1.992,1.992,0,0,0,1.9.959,1.943,1.943,0,0,0,1.548-1.6A1.808,1.808,0,0,0,64.079,72.879Z" transform="translate(785.749 1170.252)" fill-rule="evenodd"/>
  </g>
</svg>
