<svg width="30" height="31" viewBox="0 0 30 31" fill="none" xmlns="http://www.w3.org/2000/svg">
<path fill-rule="evenodd" clip-rule="evenodd" d="M4.75958 22.7029C3.09144 20.914 1.96003 18.6502 1.50566 16.1922C1.04753 13.7274 1.28278 11.1758 2.18267 8.84902C3.07488 6.53533 4.59812 4.55008 6.5611 3.14258C10.5438 0.285806 15.787 0.285806 19.7697 3.14258C21.7327 4.55008 23.2559 6.53533 24.1481 8.84902C25.048 11.1758 25.2833 13.7274 24.8251 16.1922C24.3708 18.6502 23.2393 20.914 21.5712 22.7029C19.362 25.0838 16.3308 26.4266 13.1654 26.4266C9.99997 26.4266 6.96875 25.0838 4.75958 22.7029V22.7029Z" stroke="white" stroke-width="1.5" stroke-linecap="round" stroke-linejoin="round"/>
<path d="M13.4965 6.84275C13.0846 6.88623 12.7859 7.2554 12.8293 7.66732C12.8728 8.07925 13.242 8.37794 13.6539 8.33447L13.4965 6.84275ZM17.8348 10.7862C17.9969 11.1674 18.4373 11.3451 18.8185 11.1831C19.1997 11.021 19.3773 10.5806 19.2153 10.1994L17.8348 10.7862ZM22.8725 22.4064C22.5787 22.1144 22.1038 22.1158 21.8118 22.4095C21.5198 22.7033 21.5212 23.1781 21.8149 23.4702L22.8725 22.4064ZM28.6237 30.2393C28.9175 30.5314 29.3924 30.53 29.6844 30.2362C29.9764 29.9425 29.975 29.4676 29.6813 29.1756L28.6237 30.2393ZM13.6539 8.33447C15.4396 8.14603 17.1365 9.14326 17.8348 10.7862L19.2153 10.1994C18.2577 7.94668 15.9349 6.58543 13.4965 6.84275L13.6539 8.33447ZM21.8149 23.4702L28.6237 30.2393L29.6813 29.1756L22.8725 22.4064L21.8149 23.4702Z" fill="white"/>
</svg>
