<svg width="37" height="40" viewBox="0 0 37 40" fill="none" xmlns="http://www.w3.org/2000/svg">
<path d="M18.5631 31.6581C18.3093 31.1071 17.7837 30.7052 17.1476 30.6336C16.609 30.573 16.0817 30.4589 15.5802 30.2945C15.3553 30.2197 15.1443 30.1382 14.949 30.0507L15.2735 29.1765C15.5026 29.2776 15.7388 29.3702 15.9805 29.4537L15.9906 29.4572L16.0008 29.4606C16.7767 29.7138 17.5401 29.8423 18.2697 29.8423C19.0019 29.8423 19.533 29.7454 19.9409 29.5372L19.9653 29.5248L19.9891 29.5113C20.6071 29.1609 20.9615 28.5586 20.9615 27.8587C20.9615 27.082 20.5375 26.4373 19.7978 26.0889C19.4259 25.91 18.8974 25.7394 18.1363 25.5524C17.3556 25.3573 16.6997 25.1503 16.1912 24.9383C15.8192 24.7721 15.4968 24.5068 15.2061 24.1276C14.9559 23.7893 14.8291 23.2801 14.8291 22.6142C14.8291 21.8108 15.0581 21.1475 15.5293 20.5866C15.9488 20.095 16.5445 19.7613 17.3439 19.574C17.9367 19.4351 18.3993 19.0169 18.6073 18.4767C18.8423 19.0243 19.3426 19.4314 19.965 19.5294C20.4849 19.6113 20.9624 19.7416 21.3916 19.9182L21.0928 20.775C20.2824 20.4536 19.4848 20.2911 18.7134 20.2911C16.1513 20.2911 16.0215 22.0377 16.0215 22.3878C16.0215 23.1467 16.4363 23.7832 17.1596 24.134L17.1799 24.1439L17.2006 24.153C17.5657 24.314 18.0842 24.4693 18.8324 24.6417C19.6059 24.8144 20.2509 25.0122 20.7578 25.2317L20.7682 25.2362L20.7787 25.2405C21.1551 25.3953 21.4779 25.6537 21.7657 26.0306L21.7702 26.0366L21.7749 26.0425C22.0264 26.3638 22.1539 26.8606 22.1539 27.5192C22.1539 28.2795 21.9311 28.9231 21.4727 29.4867C21.0753 29.9757 20.5201 30.314 19.7753 30.5213C19.2002 30.6814 18.7541 31.1157 18.5631 31.6581Z" fill="white"/>
<path d="M19.212 33.9333H17.9775C17.7015 33.9333 17.4776 33.7065 17.4776 33.4267V32.4095C17.4776 32.142 17.2722 31.9221 17.0098 31.8925C16.3848 31.8222 15.7801 31.6913 15.1958 31.4997C14.6282 31.3109 14.1364 31.0868 13.7205 30.8273C13.5294 30.708 13.4599 30.4657 13.5389 30.2528L14.3856 27.9715C14.4996 27.6643 14.8676 27.5468 15.1511 27.7056C15.5336 27.9198 15.9446 28.103 16.3842 28.2549C17.0392 28.4687 17.6678 28.5756 18.2699 28.5756C18.7876 28.5756 19.1573 28.519 19.3791 28.4058C19.601 28.2801 19.7119 28.0977 19.7119 27.8587C19.7119 27.5821 19.564 27.3745 19.2682 27.2362C18.983 27.0978 18.5076 26.9469 17.8421 26.7834C16.9864 26.5696 16.2733 26.3432 15.7029 26.1043C15.1324 25.8527 14.6359 25.4503 14.2133 24.8969C13.7908 24.3309 13.5795 23.57 13.5795 22.6142C13.5795 21.5074 13.9123 20.5579 14.5778 19.7656C15.1775 19.0627 16.0058 18.5875 17.0626 18.3399C17.3005 18.2841 17.4776 18.0751 17.4776 17.8276V16.7067C17.4776 16.4268 17.7015 16.2 17.9775 16.2H19.212C19.4881 16.2 19.7119 16.4268 19.7119 16.7067V17.7636C19.7119 18.0224 19.9048 18.238 20.1571 18.2778C21.0828 18.4236 21.8962 18.6995 22.5973 19.1056C22.7961 19.2207 22.8752 19.4661 22.7989 19.6849L22.0064 21.9571C21.9014 22.2582 21.5514 22.3856 21.27 22.2419C20.3773 21.7858 19.5252 21.5577 18.7136 21.5577C17.7523 21.5577 17.2716 21.8344 17.2716 22.3878C17.2716 22.6519 17.4142 22.8532 17.6995 22.9915C17.9847 23.1173 18.4548 23.2556 19.1097 23.4065C19.9549 23.5952 20.6679 23.8153 21.249 24.0668C21.83 24.3058 22.3318 24.702 22.7543 25.2553C23.1875 25.8087 23.404 26.5633 23.404 27.5192C23.404 28.5756 23.0818 29.5 22.4374 30.2924C21.876 30.9831 21.099 31.4665 20.1066 31.7428C19.8785 31.8063 19.7119 32.011 19.7119 32.2507V33.4267C19.7119 33.7065 19.4881 33.9333 19.212 33.9333Z" fill="white"/>
<path fill-rule="evenodd" clip-rule="evenodd" d="M13.0944 1H23.9181C26.6903 1 25.168 5.21547 24.0456 7.7868L22.7683 10.7356L22.5958 11.1333C23.8057 11.0738 25.002 11.4134 26.0054 12.1011C29.7585 15.5814 32.8044 19.7716 34.9718 24.4359C35.8165 26.1607 36.1516 28.096 35.9367 30.0092C35.6789 34.8856 31.8186 38.7715 27.0053 39H10.0072C5.19266 38.7783 1.32662 34.8964 1.06327 30.0193C0.848401 28.1061 1.18346 26.1708 2.02816 24.446C4.19814 19.777 7.24841 15.5833 11.0071 12.1011C12.0105 11.4134 13.2068 11.0738 14.4167 11.1333L14.2167 10.6748L12.9669 7.7868C11.8495 5.21547 10.3197 1 13.0944 1Z" stroke="white" stroke-width="1.5" stroke-linecap="round" stroke-linejoin="round"/>
<path d="M22.5957 11.8833C23.0099 11.8833 23.3457 11.5476 23.3457 11.1333C23.3457 10.7191 23.0099 10.3833 22.5957 10.3833V11.8833ZM14.4166 10.3833C14.0024 10.3833 13.6666 10.7191 13.6666 11.1333C13.6666 11.5476 14.0024 11.8833 14.4166 11.8833V10.3833ZM28.876 9.25181C29.236 9.0469 29.3617 8.58897 29.1568 8.22899C28.9519 7.86901 28.494 7.7433 28.134 7.9482L28.876 9.25181ZM22.7682 10.7356L22.9112 11.4718L22.9134 11.4714L22.7682 10.7356ZM14.2167 10.6748L14.3702 9.94065L14.3634 9.9393L14.2167 10.6748ZM8.86678 7.94176C8.50324 7.74324 8.0476 7.87701 7.84908 8.24055C7.65055 8.60409 7.78433 9.05973 8.14787 9.25825L8.86678 7.94176ZM22.5957 10.3833H14.4166V11.8833H22.5957V10.3833ZM28.134 7.9482C26.4165 8.92585 24.5559 9.61839 22.623 9.99979L22.9134 11.4714C25.0054 11.0586 27.0184 10.3092 28.876 9.25181L28.134 7.9482ZM22.6251 9.99937C19.8964 10.5296 17.0913 10.5096 14.3702 9.94068L14.0632 11.4089C16.9798 12.0187 19.9864 12.0401 22.9112 11.4718L22.6251 9.99937ZM14.3634 9.9393C12.4431 9.5562 10.5902 8.88291 8.86678 7.94176L8.14787 9.25825C10.0042 10.2719 12.0004 10.9975 14.0699 11.4103L14.3634 9.9393Z" fill="white"/>
</svg>
