<svg xmlns="http://www.w3.org/2000/svg" width="90" height="90" viewBox="0 0 90 90">
  <g id="Filter" transform="translate(-428 -256)">
    <g id="candle-2" transform="translate(428 256)">
      <path id="Vector" d="M0,0H90V90H0Z" fill="none" opacity="0"/>
      <path id="Vector-2" data-name="Vector" d="M80.625,11.25a2.833,2.833,0,0,1-2.812,2.813H51.563V15c0,5.625-3.375,7.5-7.5,7.5h-22.5c-4.125,0-7.5-1.875-7.5-7.5v-.937H2.813a2.813,2.813,0,0,1,0-5.625h11.25V7.5c0-5.625,3.375-7.5,7.5-7.5h22.5c4.125,0,7.5,1.875,7.5,7.5v.938h26.25A2.833,2.833,0,0,1,80.625,11.25Z" transform="translate(4.688 54.375)" fill="#ffed00"/>
      <path id="Vector-3" data-name="Vector" d="M80.625,11.25a2.833,2.833,0,0,1-2.812,2.813H66.563V15c0,5.625-3.375,7.5-7.5,7.5h-22.5c-4.125,0-7.5-1.875-7.5-7.5v-.937H2.813a2.813,2.813,0,0,1,0-5.625h26.25V7.5c0-5.625,3.375-7.5,7.5-7.5h22.5c4.125,0,7.5,1.875,7.5,7.5v.938h11.25A2.833,2.833,0,0,1,80.625,11.25Z" transform="translate(4.688 13.125)" fill="#ffed00"/>
    </g>
  </g>
</svg>
