<svg xmlns="http://www.w3.org/2000/svg" xmlns:xlink="http://www.w3.org/1999/xlink" width="100" height="100" viewBox="0 0 100 100">
  <defs>
    <linearGradient id="linear-gradient" x1="0.5" y1="0.635" x2="0.5" y2="-0.365" gradientUnits="objectBoundingBox">
      <stop offset="0" stop-color="#f7e830"/>
      <stop offset="1" stop-color="#fdcb06"/>
    </linearGradient>
    <radialGradient id="radial-gradient" cx="0.496" cy="3.536" r="4.378" gradientTransform="matrix(0.154, 0, 0, -1, 0.419, 4.088)" gradientUnits="objectBoundingBox">
      <stop offset="0.596" stop-color="#f29405"/>
      <stop offset="0.736" stop-color="#f7d01e"/>
      <stop offset="1" stop-color="#fdcb06"/>
    </radialGradient>
    <linearGradient id="linear-gradient-2" x1="0.491" y1="11.655" x2="0.499" y2="10.674" gradientUnits="objectBoundingBox">
      <stop offset="0" stop-color="#fada1c"/>
      <stop offset="1" stop-color="#fdcb06"/>
    </linearGradient>
    <linearGradient id="linear-gradient-3" x1="101.001" y1="11.748" x2="101.009" y2="10.768" xlink:href="#linear-gradient-2"/>
    <clipPath id="clip-path">
      <path id="Path_33" data-name="Path 33" d="M278.384,189.452a1.309,1.309,0,0,1-.113-.621l-.1.012a1.42,1.42,0,0,0-1.214-1.093c-.451-.037-1.014-.025-1.277.4-.5.671-.263,1.528-.288,2.286,0,.05.013.137.013.186a8.618,8.618,0,0,1-.15,1.5,1.061,1.061,0,0,0-.113.484,11.4,11.4,0,0,1-1.214,3.379,1.249,1.249,0,0,0-.238.484,16.781,16.781,0,0,1-1.289,1.838,1.6,1.6,0,0,0-.2.211,12.175,12.175,0,0,1-1.039,1.081c-.087.05-.15.112-.225.161a8.143,8.143,0,0,1-1.414,1.105c-.063.037-.125.087-.2.137a20.243,20.243,0,0,1-10.89,3.006,20.474,20.474,0,0,1-9.363-1.963c-.05-.025-.175-.075-.225-.1a12.555,12.555,0,0,1-1.439-.807c-.1-.05-.2-.112-.313-.161a9.569,9.569,0,0,1-1.314-.919c-.138-.124-.288-.224-.438-.335a10.579,10.579,0,0,1-1.3-1.18c-.1-.112-.2-.211-.3-.311a12.362,12.362,0,0,1-2.991-4.981,15.229,15.229,0,0,1-.526-4.646,1.685,1.685,0,0,0-2.153-.646c-.313.224-.35.633-.588.919a14.526,14.526,0,0,0,4.193,11.142.2.2,0,0,0,.138.2c.5.46.989.932,1.489,1.379a1.988,1.988,0,0,0,.3.248c.5.41,1.039.783,1.565,1.168a2.668,2.668,0,0,0,.313.2,14.112,14.112,0,0,0,2.078,1.143,1.633,1.633,0,0,0,.188.124,22.7,22.7,0,0,0,7.573,2.149,4.076,4.076,0,0,1,.864.087c1.252.075,2.5.037,3.755.012a22.64,22.64,0,0,0,11.09-3.528l.038.05c.1-.087.188-.161.288-.236.513-.373,1.014-.77,1.515-1.18a3.789,3.789,0,0,0,.35-.3,16.426,16.426,0,0,0,1.652-1.826l.075.037c.038-.062.1-.186.138-.248.425-.571.814-1.168,1.189-1.764.025-.037.087-.1.112-.137l-.05-.05c.038-.05.125-.149.163-.2a14.5,14.5,0,0,0,1.515-4.385.213.213,0,0,0,.138-.2,11.6,11.6,0,0,0,.138-1.466A8.4,8.4,0,0,0,278.384,189.452Z" transform="translate(-237.424 -187.737)"/>
    </clipPath>
  </defs>
  <g id="Flipkart" transform="translate(-6105 -10165)">
    <rect id="Rectangle_98" data-name="Rectangle 98" width="100" height="100" transform="translate(6105 10165)" fill="#fff" opacity="0"/>
    <g id="Group_100" data-name="Group 100" transform="translate(6110.357 10171.071)">
      <path id="Path_19" data-name="Path 19" d="M133.809,166.973c-.038-.124-.075-.248-.125-.373q-44.48.019-88.936.012a.512.512,0,0,0-.138.286q0,34.227-.013,68.442a5.526,5.526,0,0,0,1.765,3.155c.038.012.125.024.163.037a4.363,4.363,0,0,0,1.752.944c.463-.025.914.174,1.377.124h36.8a3,3,0,0,0,1.051-.087c.013-.049.025-.137.038-.186s.025-.2.038-.273c.789-4.372,1.552-8.757,2.391-13.129l.075-.559c-3.4-.013-6.822,0-10.227-.013-.826-.025-1.677,0-2.5-.1-1.414-.062-2.841-.012-4.256-.149-1.752,0-3.492-.162-5.245-.162-1.377-.137-2.766-.087-4.156-.149-.9-.112-1.828-.062-2.741-.1-1.49-.161-3-.049-4.494-.211-1.577.013-3.154-.124-4.732-.162a.176.176,0,0,0,.025-.075c.526.012,1.039-.025,1.565-.037,1.164-.149,2.341-.05,3.5-.211,1.214,0,2.416-.161,3.63-.161,1.076-.149,2.165-.062,3.242-.211,1.265,0,2.5-.161,3.768-.174,1.039-.137,2.09-.062,3.129-.2,1.214.012,2.416-.174,3.63-.161,1.189-.137,2.4-.1,3.592-.224-.112-.459-.2-.919-.3-1.379-.088-.286-.438-.223-.663-.261q-4.074-.578-8.124-1.143c.175-.137.413-.075.613-.1,2.1-.162,4.193-.348,6.3-.5.476-.025.939-.112,1.414-.124a16.142,16.142,0,0,0-.626-1.95c-4.493-.683-8.987-1.292-13.469-2.025,1.164-.186,2.341-.273,3.5-.4l.1-.037c3.718-.385,7.448-.82,11.165-1.18,4.719-.025,9.426-.013,14.145,0,.15-.025.413.049.438-.162.388-2.012.764-4.024,1.151-6.037a29.978,29.978,0,0,1,2.7-8.1,23.959,23.959,0,0,1,9.313-9.887,26.993,26.993,0,0,1,12.3-3.4,19.48,19.48,0,0,1,4.168.087,5.849,5.849,0,0,1,2.541,1.068,4.225,4.225,0,0,1,1.2,1.863,29.461,29.461,0,0,1,1.177,5.093,3.908,3.908,0,0,1-.238,2.112,2.693,2.693,0,0,1-1.715,1.105c-2.416.621-4.944.037-7.36.621a8.967,8.967,0,0,0-5.107,3.093,14.35,14.35,0,0,0-2.716,6.409c-.338,2.037-.764,4.074-1.1,6.124,2.378.013,4.769-.012,7.16.013a2.522,2.522,0,0,1,2.316,1.416,6.78,6.78,0,0,1,.225,3.64,13.169,13.169,0,0,1-1.139,3.937,4.467,4.467,0,0,1-2.528,2.4,5.085,5.085,0,0,1-1.89.186c-2.1,0-4.206.025-6.309,0-.338,1.528-.563,3.093-.864,4.646-.551,3.018-1.089,6.049-1.64,9.08-.013.1-.025.311-.025.422.989.05,1.978,0,2.967.025,7.335,0,14.683-.013,22.03,0a4.413,4.413,0,0,0,2.278-.547c.413-.149.663-.509,1.026-.708s.451-.608.751-.869a4.121,4.121,0,0,0,.688-1.838,1.131,1.131,0,0,0,.188-.025C133.8,212.683,133.834,189.828,133.809,166.973Z" transform="translate(-44.583 -151.751)" stroke="#fcd109" stroke-width="0.094" fill="url(#linear-gradient)"/>
      <path id="Path_20" data-name="Path 20" d="M56.171,47.25a13.682,13.682,0,0,1,3.267-.186q30.661.019,61.322,0c1.214-.05,2.278.633,3.4.981.9.36,1.84.646,2.741,1.031a1.488,1.488,0,0,1,.463.373c-.013,1.64,0,3.292,0,4.944a4.154,4.154,0,0,0,.088,1.3c.263.037.4.236.576.4a16.969,16.969,0,0,1,2.278,1.478c1.127.795,2.328,1.491,3.43,2.31a2.055,2.055,0,0,1-.088.956,5.134,5.134,0,0,0-.075,1.068q-44.48.019-88.936.012a4.289,4.289,0,0,0-.125-1.2c-.025-.323-.138-.745.175-.969,1.252-.869,2.579-1.652,3.805-2.571.764-.484,1.5-.981,2.241-1.478a1.568,1.568,0,0,0,.1-.832c0-1.8,0-3.6.013-5.4.426-.547,1.164-.609,1.752-.882,1.19-.447,2.391-.882,3.568-1.329m.075.211c-1.6.609-3.217,1.192-4.819,1.8-.213.037-.326.224-.438.385a3.725,3.725,0,0,1,.025.373C51,51.511,51.013,53,51,54.492a3.094,3.094,0,0,0,.1,1.081,3.1,3.1,0,0,1-.538.447c-1.815,1.168-3.567,2.435-5.382,3.59-.313.186-.663.435-.563.845-.063.224.05.41.288.348,3.93-.025,7.848.025,11.779-.037,5.846,0,11.679.012,17.524,0l.088-.037a3.433,3.433,0,0,0,.8.037q15.884,0,31.781,0c3.33.012,6.672,0,10.014,0,5.508,0,11.028.05,16.535.025.163-.037.213-.149.15-.348-.013-.2.063-.472-.15-.6-.876-.41-1.627-1.043-2.466-1.54-.3-.248-.688-.385-.914-.72-.864-.484-1.665-1.081-2.516-1.615a2.543,2.543,0,0,1-.425-.4,3,3,0,0,0,.1-.82c-.013-1.578,0-3.155-.013-4.733a.683.683,0,0,0-.2-.7c-1.5-.534-2.991-1.106-4.481-1.652a5.149,5.149,0,0,0-1.477-.422H57.059a4.913,4.913,0,0,0-.813.211Z" transform="translate(-44.476 -47.059)" fill="#f8f3b5" stroke="#f8f3b5" stroke-width="0.094"/>
      <path id="Path_21" data-name="Path 21" d="M96.611,70.9c1.1.46,2.278.72,3.392,1.168.6.236.789.882,1.051,1.4a5.21,5.21,0,0,1-.889.671c-1.152.77-2.328,1.515-3.467,2.31a3.094,3.094,0,0,1-.1-1.081C96.611,73.881,96.6,72.391,96.611,70.9ZM169.4,72.068c1.114-.435,2.278-.733,3.392-1.168.013,1.578,0,3.155.013,4.733a3,3,0,0,1-.1.82c-.976-.671-1.965-1.3-2.942-1.963a11.53,11.53,0,0,1-1.427-1.031C168.6,72.937,168.8,72.3,169.4,72.068Z" transform="translate(-90.074 -67.939)" fill="#f7b402" stroke="#f7b402" stroke-width="0.094"/>
      <path id="Path_22" data-name="Path 22" d="M236.36,84.018a2.353,2.353,0,0,1,2.8,2.323,2.379,2.379,0,0,1-2.841,2.223,2.722,2.722,0,0,1-1.414-.956,2.316,2.316,0,0,1-.188-2.261A2.234,2.234,0,0,1,236.36,84.018Zm35.712.783a2.417,2.417,0,0,1,2.341-.77,2.374,2.374,0,0,1,1.54,1.217A2.337,2.337,0,0,1,275,88.316a2.431,2.431,0,0,1-2.879-.484A2.35,2.35,0,0,1,272.072,84.8Z" transform="translate(-210.722 -79.38)" fill="#bda727" stroke="#bda727" stroke-width="0.094"/>
      <path id="Path_23" data-name="Path 23" d="M55.429,92.183a5.209,5.209,0,0,0,.889-.671l.087.087c.088.646.025,1.3.05,1.95-.038,1.938.038,3.888-.05,5.826-3.643,0-7.285-.025-10.928,0-.1-.41.25-.658.563-.845,1.815-1.155,3.567-2.422,5.382-3.59a3.1,3.1,0,0,0,.538-.447c1.139-.795,2.316-1.54,3.467-2.31Zm68.044-.248a.768.768,0,0,1,.125-.435,11.548,11.548,0,0,0,1.427,1.031c.976.658,1.965,1.292,2.942,1.963a2.563,2.563,0,0,0,.425.4c.851.534,1.652,1.13,2.516,1.615.225.335.613.472.914.72.839.5,1.59,1.13,2.466,1.54.213.124.138.4.15.6-3.643.012-7.273-.012-10.915.012a14.658,14.658,0,0,1-.038-1.478c0-1.987-.025-3.975-.013-5.962Z" transform="translate(-45.338 -85.98)" fill="#f7e62d" stroke="#f7e62d" stroke-width="0.094"/>
      <path id="Path_24" data-name="Path 24" d="M134.438,61.792c-3.643.012-7.273-.012-10.915.012a14.66,14.66,0,0,1-.038-1.478c0-1.987-.025-3.975-.013-5.962a.768.768,0,0,1,.125-.435c.263-.522.463-1.155,1.064-1.391,1.114-.435,2.278-.733,3.392-1.168a.683.683,0,0,0-.2-.7c-1.5-.534-2.991-1.105-4.481-1.652A5.149,5.149,0,0,0,121.9,48.6H57.919a4.906,4.906,0,0,0-.814.211c-1.6.609-3.217,1.192-4.819,1.8-.213.037-.326.224-.438.385a3.724,3.724,0,0,1,.025.373c1.1.46,2.278.72,3.392,1.168.6.236.789.882,1.051,1.4l.087.087c.088.646.025,1.3.05,1.95-.038,1.938.038,3.888-.05,5.826-3.643,0-7.285-.025-10.928,0-.063.224.05.41.288.348,3.93-.025,7.848.025,11.779-.037,5.846,0,11.679.012,17.524,0l.088-.037a3.433,3.433,0,0,0,.8.037q15.884,0,31.781,0c3.33.012,6.672,0,10.014,0,5.508,0,11.028.05,16.536.025.163-.037.213-.149.151-.348Zm-65.1-7.416a2.234,2.234,0,0,1,1.64-1.329,2.353,2.353,0,0,1,2.8,2.323,2.379,2.379,0,0,1-2.841,2.223,2.722,2.722,0,0,1-1.414-.956,2.317,2.317,0,0,1-.188-2.261Zm37.352-.547a2.417,2.417,0,0,1,2.341-.77,2.374,2.374,0,0,1,1.54,1.217,2.337,2.337,0,0,1-.951,3.068,2.431,2.431,0,0,1-2.879-.484A2.35,2.35,0,0,1,106.687,53.829Z" transform="translate(-45.337 -48.408)" stroke="#fcd109" stroke-width="0.094" fill="url(#radial-gradient)"/>
      <path id="Path_25" data-name="Path 25" d="M555.006,189.177c.175.037-.912-1.037-.7-1.086a2.352,2.352,0,0,1,1.878-.083c.918.477.69,1.594.586,2.008a2.245,2.245,0,0,1-.69,1.056,1.212,1.212,0,0,1-.634.273c.113-.609-.25-.708-.275-1.329Z" transform="translate(-490.465 -170.335)" stroke="#fcd109" stroke-width="0.094" fill="url(#linear-gradient-2)"/>
      <path id="Path_26" data-name="Path 26" d="M228.514,188.682c-.025.621-.388.72-.275,1.329a1.212,1.212,0,0,1-.634-.273,2.247,2.247,0,0,1-.69-1.056c-.1-.414-.332-1.531.586-2.008a2.351,2.351,0,0,1,1.878.083c.213.05-.874,1.124-.7,1.086l-.164.839Z" transform="translate(-203.987 -169.167)" stroke="#fcd109" stroke-width="0.094" fill="url(#linear-gradient-3)"/>
      <path id="Path_27" data-name="Path 27" d="M298.986,261.662a.7.7,0,0,1,.564-.162,28.925,28.925,0,0,1-5.889,8.974,8.826,8.826,0,0,1-.891.693c-.3.219-.6.424-.891.634s-.574.4-.853.606a11.738,11.738,0,0,1-2.128,1.155,20.1,20.1,0,0,1-4.556,1.466,13.457,13.457,0,0,1-1.865.261,10.981,10.981,0,0,1-2.391.112c-.438.075-.826-.174-1.252-.124q-.554-.078-1.1-.186t-1.107-.261c-5.738-1.776-11.371-6.124-13.012-12a6.556,6.556,0,0,1-.111-1.2q.263.522.545,1.035a18.324,18.324,0,0,0,12.437,10.225c.444.2.925.131,1.35.3a3.521,3.521,0,0,1,1.139.112c1.289.025,2.579.012,3.868.012a1.907,1.907,0,0,0,.513-.112,16.59,16.59,0,0,0,6.214-1.536q.588-.265,1.158-.564.5-.26.972-.564t.9-.633a20.609,20.609,0,0,0,5.68-6.9C298.54,262.521,298.777,262.069,298.986,261.662Z" transform="translate(-236.084 -234.864)" fill="#bda727" stroke="#bda727" stroke-width="0.094"/>
      <path id="Path_28" data-name="Path 28" d="M258.016,327.188a26.993,26.993,0,0,1,12.3-3.4,19.48,19.48,0,0,1,4.168.087,5.848,5.848,0,0,1,2.541,1.068,5.432,5.432,0,0,1-1.076-.186,18.8,18.8,0,0,0-3.129-.149,33.113,33.113,0,0,0-8.975,1.056,21.165,21.165,0,0,0-4.444,1.789,22.144,22.144,0,0,0-6.321,5.142,26.826,26.826,0,0,0-5.858,12.695c-.426,2.472-.914,4.931-1.3,7.415-.626.062-1.264.025-1.89.025q-4.131-.019-8.261-.049c-.588.024-1.164-.112-1.752-.075-5.007.025-10.014-.012-15.021-.012l.1-.037c3.718-.385,7.448-.82,11.165-1.18,4.719-.025,9.426-.013,14.145,0,.15-.025.413.049.438-.162.388-2.012.764-4.024,1.151-6.037a29.987,29.987,0,0,1,2.7-8.1A23.959,23.959,0,0,1,258.016,327.188Z" transform="translate(-197.154 -289.347)" fill="#0d69b3" stroke="#0d69b3" stroke-width="0.094"/>
      <path id="Path_29" data-name="Path 29" d="M160.888,331.956a33.114,33.114,0,0,1,8.975-1.056,18.8,18.8,0,0,1,3.129.149,5.423,5.423,0,0,0,1.077.186,4.226,4.226,0,0,1,1.2,1.863,29.462,29.462,0,0,1,1.177,5.093,3.908,3.908,0,0,1-.238,2.112,2.693,2.693,0,0,1-1.715,1.105c-2.416.621-4.944.037-7.36.621a8.967,8.967,0,0,0-5.107,3.093,14.351,14.351,0,0,0-2.716,6.409c-.338,2.037-.764,4.074-1.1,6.124a10.969,10.969,0,0,0-.325,1.441c2.366.037,4.732,0,7.1.025.9-.025,1.8.025,2.7-.037a6.78,6.78,0,0,1,.225,3.64,13.169,13.169,0,0,1-1.139,3.937,4.466,4.466,0,0,1-2.529,2.4,5.085,5.085,0,0,1-1.89.186c-2.1,0-4.206.025-6.309,0-.338,1.528-.563,3.093-.864,4.646-.551,3.018-1.089,6.049-1.64,9.08-.013.1-.025.311-.025.422v.012c-5.47,0-10.928.013-16.4,0,.013-.049.025-.137.038-.186s.025-.2.038-.273c.013.1.025.286.038.373.338.037.951.211,1.039-.273.851-4.571,1.64-9.167,2.516-13.738a2.656,2.656,0,0,0-1.039-.012c-.05.174-.1.348-.163.522l.075-.559c-3.4-.013-6.822,0-10.226-.013-.826-.024-1.677,0-2.5-.1-1.414-.062-2.841-.012-4.256-.149-1.752,0-3.492-.161-5.245-.161-1.377-.137-2.766-.087-4.156-.149-.9-.112-1.828-.062-2.741-.1-1.49-.162-3-.049-4.494-.211-1.577.013-3.154-.124-4.732-.161a.176.176,0,0,0,.025-.075c.526.012,1.039-.025,1.565-.037,1.164-.149,2.341-.05,3.5-.211,1.214,0,2.416-.162,3.63-.162,1.076-.149,2.165-.062,3.242-.211,1.264,0,2.5-.162,3.768-.174,1.039-.137,2.09-.062,3.129-.2,1.214.012,2.416-.174,3.63-.162,1.189-.137,2.4-.1,3.592-.224-.112-.459-.2-.919-.3-1.379-.088-.286-.438-.224-.663-.261q-4.074-.578-8.124-1.143c.175-.137.413-.075.613-.1,2.1-.162,4.193-.348,6.3-.5.476-.025.939-.112,1.414-.124a16.144,16.144,0,0,0-.626-1.95c-4.493-.683-8.987-1.292-13.469-2.025,1.164-.186,2.341-.273,3.5-.4,5.007,0,10.014.037,15.021.012.588-.037,1.164.1,1.752.075q4.131.037,8.261.049c.626,0,1.264.037,1.89-.025.388-2.484.876-4.944,1.3-7.415a26.823,26.823,0,0,1,5.858-12.694,22.142,22.142,0,0,1,6.321-5.143A21.163,21.163,0,0,1,160.888,331.956Z" transform="translate(-94.192 -295.643)" fill="#107bd4" stroke="#107bd4" stroke-width="0.094"/>
      <path id="Path_30" data-name="Path 30" d="M409.017,546.3c2.378.013,4.769-.012,7.16.013a2.522,2.522,0,0,1,2.316,1.416c-.9.062-1.8.013-2.7.037-2.366-.025-4.732.013-7.1-.025A10.908,10.908,0,0,1,409.017,546.3Zm-18.463,11.639a2.657,2.657,0,0,1,1.039.012c-.876,4.571-1.665,9.167-2.516,13.738-.088.484-.7.311-1.039.273-.013-.087-.025-.273-.038-.373.789-4.372,1.552-8.757,2.391-13.129C390.453,558.286,390.5,558.112,390.554,557.938Z" transform="translate(-345 -484.287)" fill="#0d69b3" stroke="#0d69b3" stroke-width="0.094"/>
      <path id="Path_31" data-name="Path 31" d="M278.384,189.452a1.309,1.309,0,0,1-.113-.621l-.1.012a1.42,1.42,0,0,0-1.214-1.093c-.451-.037-1.014-.025-1.277.4-.5.671-.263,1.528-.288,2.286,0,.05.013.137.013.186a8.618,8.618,0,0,1-.15,1.5,1.061,1.061,0,0,0-.113.484,11.4,11.4,0,0,1-1.214,3.379,1.249,1.249,0,0,0-.238.484,16.781,16.781,0,0,1-1.289,1.838,1.6,1.6,0,0,0-.2.211,12.175,12.175,0,0,1-1.039,1.081c-.087.05-.15.112-.225.161a8.143,8.143,0,0,1-1.414,1.105c-.063.037-.125.087-.2.137a20.243,20.243,0,0,1-10.89,3.006,20.474,20.474,0,0,1-9.363-1.963c-.05-.025-.175-.075-.225-.1a12.555,12.555,0,0,1-1.439-.807c-.1-.05-.2-.112-.313-.161a9.569,9.569,0,0,1-1.314-.919c-.138-.124-.288-.224-.438-.335a10.579,10.579,0,0,1-1.3-1.18c-.1-.112-.2-.211-.3-.311a12.362,12.362,0,0,1-2.991-4.981,15.229,15.229,0,0,1-.526-4.646,1.685,1.685,0,0,0-2.153-.646c-.313.224-.35.633-.588.919a14.526,14.526,0,0,0,4.193,11.142.2.2,0,0,0,.138.2c.5.46.989.932,1.489,1.379a1.988,1.988,0,0,0,.3.248c.5.41,1.039.783,1.565,1.168a2.668,2.668,0,0,0,.313.2,14.112,14.112,0,0,0,2.078,1.143,1.633,1.633,0,0,0,.188.124,22.7,22.7,0,0,0,7.573,2.149,4.076,4.076,0,0,1,.864.087c1.252.075,2.5.037,3.755.012a22.64,22.64,0,0,0,11.09-3.528l.038.05c.1-.087.188-.161.288-.236.513-.373,1.014-.77,1.515-1.18a3.789,3.789,0,0,0,.35-.3,16.426,16.426,0,0,0,1.652-1.826l.075.037c.038-.062.1-.186.138-.248.425-.571.814-1.168,1.189-1.764.025-.037.087-.1.112-.137l-.05-.05c.038-.05.125-.149.163-.2a14.5,14.5,0,0,0,1.515-4.385.213.213,0,0,0,.138-.2,11.6,11.6,0,0,0,.138-1.466A8.4,8.4,0,0,0,278.384,189.452Z" transform="translate(-213.272 -170.263)" fill="#fff" stroke="#fff" stroke-width="0.094"/>
      <g id="Group_99" data-name="Group 99" transform="translate(24.152 17.474)" clip-path="url(#clip-path)">
        <path id="Path_32" data-name="Path 32" d="M230.167,188.243c1.015.316,3.346-.479,4.006.248m-3.421,2.815c.972-.336,3.057-1.131,3.922-.662m-2.921,3.726c.47.151,1.4-.668,1.857-.909a6.871,6.871,0,0,1,2.149-.748m-2.5,4.886a7.05,7.05,0,0,1,1.765-1.737c.694-.481,2.593-1.767,3.408-1.327m-3.755,5.383c.55-.434.774-1.2,1.352-1.658a11.846,11.846,0,0,1,2.487-.992m-1.481,4.368c.165-1.2,1.393-2.65,2.566-2.546m-.751,4.223c.62-.062,1.144-1.438,1.563-1.9a4,4,0,0,1,2.109-1.16m-.083,4.555c-.04-.869.865-3.361,1.919-3.23m.751,4.058c-.044-1.027.491-4.116,1.752-4.223m1,5.879c-.239-1.436-.224-3.514.918-4.555m2.5,4.886c-.127-1.2-1.326-3.617,0-4.555m3.672,3.726a6.848,6.848,0,0,1-.668-3.975m4.173,3.4a8.226,8.226,0,0,1-1.156-2.466c-.1-.552.075-1.338-.013-1.758m4.089,2.981c-.957-.621-1.223-2.905-.918-3.892m3.755,2.65c-.681-1.45-1.407-2.574-1.419-4.223m4.173,1.573c-1.058-.706-2.409-1.991-2.253-3.4m5.174,1.159a8.988,8.988,0,0,1-4.506-3.064m5.841.331c-1.16-.247-4.992-1.731-4.757-3.23m6.008.331c-1.616-.588-3.967-1.116-5.257-2.236m6.092-.414a16.445,16.445,0,0,1-3.511-.58c-1.149-.2-2.214-.581-3.332-.828m5.841-1.159a14.69,14.69,0,0,1-5.591-1.159" transform="translate(-231.075 -186.947)" fill="none" stroke="#d1d1d1" stroke-width="2"/>
      </g>
    </g>
  </g>
</svg>
