<svg width="39" height="31" viewBox="0 0 39 31" fill="none" xmlns="http://www.w3.org/2000/svg">
<path d="M7.4617 9.08201C7.4617 8.66779 7.12592 8.33201 6.7117 8.33201C6.29749 8.33201 5.9617 8.66779 5.9617 9.08201H7.4617ZM6.7117 23.0262L7.46149 23.0441C7.46163 23.0381 7.4617 23.0322 7.4617 23.0262H6.7117ZM13.3792 29.9435L13.3608 30.6933C13.367 30.6934 13.3731 30.6935 13.3792 30.6935V29.9435ZM14.4898 29.9435V30.6935C14.904 30.6935 15.2398 30.3577 15.2398 29.9435H14.4898ZM14.4898 25.3313H15.2398C15.2398 25.3254 15.2397 25.3195 15.2396 25.3137L14.4898 25.3313ZM18.9341 20.7211L18.9526 19.9714C18.9403 19.971 18.9279 19.971 18.9156 19.9714L18.9341 20.7211ZM23.3784 25.3334L22.6287 25.3154C22.6285 25.3214 22.6284 25.3274 22.6284 25.3334H23.3784ZM23.3784 29.9435H22.6284C22.6284 30.3577 22.9642 30.6935 23.3784 30.6935V29.9435ZM24.489 29.9435V30.6935C24.4952 30.6935 24.5014 30.6934 24.5076 30.6933L24.489 29.9435ZM31.1544 23.0262H30.4044C30.4044 23.0322 30.4045 23.0381 30.4046 23.0441L31.1544 23.0262ZM31.9044 9.08201C31.9044 8.66779 31.5686 8.33201 31.1544 8.33201C30.7402 8.33201 30.4044 8.66779 30.4044 9.08201H31.9044ZM0.706993 12.6454C0.375517 12.8938 0.30816 13.3639 0.556547 13.6954C0.804935 14.0268 1.27501 14.0942 1.60648 13.8458L0.706993 12.6454ZM16.372 1.84425L15.9255 1.24167L15.9223 1.24406L16.372 1.84425ZM21.4981 1.84425L21.9478 1.244L21.9447 1.24168L21.4981 1.84425ZM30.7068 9.68018C31.0383 9.92853 31.5083 9.86112 31.7567 9.52962C32.005 9.19811 31.9376 8.72805 31.6061 8.4797L30.7068 9.68018ZM31.6064 8.47989C31.275 8.23138 30.8049 8.29856 30.5564 8.62995C30.3079 8.96133 30.3751 9.43143 30.7065 9.67994L31.6064 8.47989ZM36.2613 13.8456C36.5927 14.0941 37.0628 14.027 37.3113 13.6956C37.5598 13.3642 37.4927 12.8941 37.1613 12.6456L36.2613 13.8456ZM5.9617 9.08201V23.0262H7.4617V9.08201H5.9617ZM5.96192 23.0083C5.86299 27.1596 9.18257 30.5908 13.3608 30.6933L13.3976 29.1937C10.0307 29.1112 7.38268 26.3512 7.46149 23.0441L5.96192 23.0083ZM13.3792 30.6935H14.4898V29.1935H13.3792V30.6935ZM15.2398 29.9435V25.3313H13.7398V29.9435H15.2398ZM15.2396 25.3137C15.191 23.2502 16.8439 21.5229 18.9526 21.4709L18.9156 19.9714C15.9958 20.0434 13.6716 22.4417 13.74 25.3489L15.2396 25.3137ZM18.9156 21.4709C21.025 21.5229 22.6782 23.2513 22.6287 25.3154L24.1282 25.3513C24.198 22.4431 21.8734 20.0434 18.9526 19.9714L18.9156 21.4709ZM22.6284 25.3334V29.9435H24.1284V25.3334H22.6284ZM23.3784 30.6935H24.489V29.1935H23.3784V30.6935ZM24.5076 30.6933C28.685 30.5896 32.0032 27.1587 31.9042 23.0083L30.4046 23.0441C30.4835 26.3506 27.8366 29.1102 24.4704 29.1938L24.5076 30.6933ZM31.9044 23.0262V9.08201H30.4044V23.0262H31.9044ZM1.60648 13.8458L16.8218 2.44444L15.9223 1.24406L0.706993 12.6454L1.60648 13.8458ZM16.8186 2.44682C18.0723 1.51773 19.7979 1.51773 21.0516 2.44682L21.9447 1.24168C20.1605 -0.080559 17.7097 -0.080559 15.9255 1.24168L16.8186 2.44682ZM21.0485 2.44449L30.7068 9.68018L31.6061 8.4797L21.9478 1.24401L21.0485 2.44449ZM30.7065 9.67994L36.2613 13.8456L37.1613 12.6456L31.6064 8.47989L30.7065 9.67994Z" fill="white"/>
</svg>
