<svg id="Link_Gray" data-name="Link Gray" xmlns="http://www.w3.org/2000/svg" width="60" height="60" viewBox="0 0 60 60">
  <path id="Path_59" data-name="Path 59" d="M0,0H60V60H0Z" fill="none"/>
  <path id="Path_60" data-name="Path 60" d="M29.394,17.018l3.537,3.538a17.5,17.5,0,0,1,0,24.75l-.885.882A17.5,17.5,0,0,1,7.3,21.438l3.538,3.538A12.5,12.5,0,1,0,28.512,42.653l.885-.885a12.5,12.5,0,0,0,0-17.675l-3.538-3.537L29.4,17.02ZM46.189,32.045,42.654,28.51A12.5,12.5,0,1,0,24.976,10.832l-.885.885a12.5,12.5,0,0,0,0,17.675l3.537,3.538-3.538,3.535L20.557,32.93a17.5,17.5,0,0,1,0-24.75l.885-.883a17.5,17.5,0,1,1,24.75,24.75Z" transform="translate(3.256 3.257)" fill="#656554"/>
</svg>
