<svg id="Link_Completed" data-name="Link/Completed" xmlns="http://www.w3.org/2000/svg" width="70" height="70" viewBox="0 0 70 70">
  <path id="Path_59" data-name="Path 59" d="M0,0H70V70H0Z" fill="none"/>
  <path id="Path_60" data-name="Path 60" d="M33.931,19.492l4.127,4.127a20.417,20.417,0,0,1,0,28.875l-1.033,1.03A20.418,20.418,0,1,1,8.151,24.649l4.127,4.127A14.583,14.583,0,1,0,32.9,49.4l1.032-1.033a14.583,14.583,0,0,0,0-20.621l-4.127-4.127,4.127-4.124ZM53.525,37.024,49.4,32.9A14.583,14.583,0,1,0,28.777,12.276l-1.032,1.033a14.583,14.583,0,0,0,0,20.621l4.127,4.127-4.127,4.124-4.124-4.124a20.417,20.417,0,0,1,0-28.875l1.033-1.03A20.418,20.418,0,1,1,53.528,37.027Z" transform="translate(4.16 4.162)" fill="#ffec00"/>
</svg>
