<svg width="39" height="31" viewBox="0 0 39 31" fill="none" xmlns="http://www.w3.org/2000/svg">
<path d="M36.5375 4.99997V28.5238H6.99902V31H36.5375C37.897 31 38.999 29.8913 38.999 28.5238V4.99997H36.5375Z" fill="white"/>
<path fill-rule="evenodd" clip-rule="evenodd" d="M33.999 2.36361V23.6363C33.999 24.9417 32.9117 26 31.5705 26H2.42759C1.08633 26 -0.000976562 24.9417 -0.000976562 23.6363V2.36361C-0.000976562 1.05821 1.08633 -3.05176e-05 2.42759 -3.05176e-05H31.5705C32.9117 -3.05176e-05 33.999 1.05821 33.999 2.36361ZM31.5705 2.36361H2.42759V23.6363H31.5705V2.36361Z" fill="white"/>
<path fill-rule="evenodd" clip-rule="evenodd" d="M10.999 13.5C10.999 17.0898 13.9092 20 17.499 20C21.0833 19.9866 23.9857 17.0843 23.999 13.5C23.999 9.91012 21.0889 6.99997 17.499 6.99997C13.9092 6.99997 10.999 9.91012 10.999 13.5ZM13.4335 13.5C13.4335 11.2546 15.2537 9.43443 17.499 9.43443C18.5773 9.43443 19.6114 9.86276 20.3738 10.6252C21.1362 11.3876 21.5646 12.4217 21.5646 13.5C21.5646 15.7453 19.7444 17.5655 17.499 17.5655C15.2537 17.5655 13.4335 15.7453 13.4335 13.5Z" fill="white"/>
</svg>
