<svg xmlns="http://www.w3.org/2000/svg" width="100" height="100" viewBox="0 0 100 100">
  <g id="Myntra" transform="translate(-5156 -10872)">
    <rect id="Rectangle_99" data-name="Rectangle 99" width="100" height="100" transform="translate(5156 10872)" fill="#fff" opacity="0"/>
    <g id="myntra-seeklogo.com" transform="translate(5212.011 10820.484)">
      <path id="Path_34" data-name="Path 34" d="M320.585,571.4h0Z" transform="translate(-326.542 -439.377)" fill="#f37320" fill-rule="evenodd"/>
      <path id="Path_35" data-name="Path 35" d="M331.921,569.9a.649.649,0,0,0-.121.036.354.354,0,0,0,.121-.036" transform="translate(-336.474 -438.058)" fill="#f37320" fill-rule="evenodd"/>
      <path id="Path_36" data-name="Path 36" d="M312.548,570.412a.073.073,0,0,1-.048-.012.073.073,0,0,0,.048.012" transform="translate(-319.51 -438.498)" fill="#f37320" fill-rule="evenodd"/>
      <path id="Path_37" data-name="Path 37" d="M327.666,570.7c-.085.012-.194.036-.266.048.073-.012.169-.036.266-.048" transform="translate(-332.606 -438.761)" fill="#f37320" fill-rule="evenodd"/>
      <path id="Path_38" data-name="Path 38" d="M324.018,571.2a1.385,1.385,0,0,1-.218.012.452.452,0,0,0,.218-.012" transform="translate(-329.442 -439.201)" fill="#f37320" fill-rule="evenodd"/>
      <path id="Path_39" data-name="Path 39" d="M325.794,571c-.073,0-.145.012-.194.012a1.173,1.173,0,0,0,.194-.012" transform="translate(-331.024 -439.025)" fill="#f15e22" fill-rule="evenodd"/>
      <path id="Path_40" data-name="Path 40" d="M310.139,569.973a3.376,3.376,0,0,1-.339-.073c.109.012.218.048.339.073" transform="translate(-317.137 -438.058)" fill="#f15e22" fill-rule="evenodd"/>
      <path id="Path_41" data-name="Path 41" d="M329.79,570.1a2.041,2.041,0,0,1-.29.073,2.032,2.032,0,0,0,.29-.073" transform="translate(-334.452 -438.234)" fill="#f15e22" fill-rule="evenodd"/>
      <path id="Path_42" data-name="Path 42" d="M313.9,570.609a4.527,4.527,0,0,1-.9-.109,3.7,3.7,0,0,0,.9.109" transform="translate(-319.949 -438.586)" fill="#f15e22" fill-rule="evenodd"/>
      <path id="Path_43" data-name="Path 43" d="M321.5,571.3c-.085,0-.194.012-.3.012a2.328,2.328,0,0,0,.3-.012" transform="translate(-327.157 -439.289)" fill="#f15e22" fill-rule="evenodd"/>
      <path id="Path_44" data-name="Path 44" d="M479.245,155.185h-.012a1.33,1.33,0,0,0-.533-.085,2.64,2.64,0,0,1,.7.157.913.913,0,0,1-.157-.073" transform="translate(-465.592 -73.467)" fill="#f15e22" fill-rule="evenodd"/>
      <path id="Path_45" data-name="Path 45" d="M471.794,155.169h-.012a.631.631,0,0,1-.182.073,2.626,2.626,0,0,1,.872-.145,1.368,1.368,0,0,0-.678.073" transform="translate(-459.352 -73.452)" fill="#ec008b" fill-rule="evenodd"/>
      <path id="Path_46" data-name="Path 46" d="M526.345,171.285h0a1.424,1.424,0,0,0-.545-.085,1.947,1.947,0,0,1,.7.157.831.831,0,0,0-.157-.073" transform="translate(-506.991 -87.618)" fill="#f15e22" fill-rule="evenodd"/>
      <path id="Path_47" data-name="Path 47" d="M518.794,171.207h0a.556.556,0,0,1-.194.085,2.319,2.319,0,0,1,.859-.157,1.53,1.53,0,0,0-.666.073" transform="translate(-500.663 -87.552)" fill="#ec008b" fill-rule="evenodd"/>
      <path id="Path_48" data-name="Path 48" d="M528.345,172.373h0a1.411,1.411,0,0,0-.545-.073,1.968,1.968,0,0,1,.7.145c-.06-.024-.1-.048-.157-.073" transform="translate(-508.749 -88.585)" fill="#f15e22" fill-rule="evenodd"/>
      <path id="Path_49" data-name="Path 49" d="M520.894,172.251h0c-.061.036-.121.048-.194.085a2.277,2.277,0,0,1,.859-.157,1.941,1.941,0,0,0-.666.073" transform="translate(-502.509 -88.475)" fill="#ec008b" fill-rule="evenodd"/>
      <path id="Path_50" data-name="Path 50" d="M-26,71.948h.012c.048-.012.121-.036.182-.048-4.805.726-15.457,17.866-21.183,33.59-6.089,16.74-4.624,24.814.157,26.569h.012c4.781,1.731,11.088-3.51,17.188-20.263a126.042,126.042,0,0,0,4.164-14.15c-2.966-12.758-3.619-24.536-.533-25.7" transform="translate(0 -0.338)" fill="#f13ab1" fill-rule="evenodd"/>
      <path id="Path_51" data-name="Path 51" d="M175.3,131.721h0c-4.805-1.767-6.246-9.853-.157-26.569.605-1.658,1.247-3.341,1.961-5-6.258-14.949-15.905-29.438-19.9-28.6a1.975,1.975,0,0,1,.859.073h.012v.012c3.1,1.15,2.433,12.915-.533,25.686a118.418,118.418,0,0,0,4.164,14.138c4.805,13.194,9.744,19.234,13.956,20.36a2.735,2.735,0,0,1-.363-.1" transform="translate(-183.008)" fill="#fd913c" fill-rule="evenodd"/>
      <path id="Path_52" data-name="Path 52" d="M142.029,71.854h-.012a1.861,1.861,0,0,0-.823-.073c-.085.012-.121.036-.194.048h-.012c-3.087,1.162-2.433,12.94.52,25.7,2.941-12.758,3.607-24.511.52-25.673" transform="translate(-166.978 -0.219)" fill="#f05524" fill-rule="evenodd"/>
      <path id="Path_53" data-name="Path 53" d="M340.365,73c-4.479,1.622-12.952,14.864-18.665,28.445.7,1.658,1.356,3.341,1.961,5,6.089,16.728,4.636,24.814-.157,26.557v.012c-.145.036-.3.085-.424.121,4.224-1.089,9.211-7.117,14-20.384a115.353,115.353,0,0,0,4.067-13.763c-2.966-12.649-3.716-24.451-.787-25.988" transform="translate(-327.596 -1.305)" fill="#fd913c" fill-rule="evenodd"/>
      <path id="Path_54" data-name="Path 54" d="M279.786,339.568h.012c4.781-1.743,6.234-9.853.157-26.569-.629-1.658-1.271-3.341-1.985-5-.7,1.658-1.356,3.341-1.961,5-6.089,16.728-4.624,24.826.157,26.569.121.048.254.073.375.109a1.737,1.737,0,0,0,.339.085h.048a4.931,4.931,0,0,0,.908.121h.387a1.171,1.171,0,0,0,.218-.036c.085,0,.145-.012.23-.012s.157-.036.254-.048a1.122,1.122,0,0,0,.291-.048c.048,0,.085-.012.121-.012.157-.061.3-.1.448-.157" transform="translate(-283.903 -207.86)" fill="#f05524" fill-rule="evenodd"/>
      <path id="Path_55" data-name="Path 55" d="M483.05,72.9c2.966,1.477,2.227,13.291-.75,26.024a118.166,118.166,0,0,0,4.055,13.738c6.1,16.74,12.407,21.994,17.212,20.263h.012c4.769-1.767,6.234-9.829.145-26.569C498.193,91.166,488.074,74.667,483.05,72.9" transform="translate(-468.757 -1.217)" fill="#f13ab1" fill-rule="evenodd"/>
      <path id="Path_56" data-name="Path 56" d="M463.777,71.757a2.808,2.808,0,0,0-.7-.157,2.738,2.738,0,0,0-.859.182c-2.905,1.537-2.179,13.315.8,26,3-12.722,3.728-24.536.763-26.024" transform="translate(-449.483 -0.074)" fill="#f05524" fill-rule="evenodd"/>
    </g>
  </g>
</svg>
