<svg id="Product_Detail_Completed" data-name="Product Detail/Completed" xmlns="http://www.w3.org/2000/svg" width="70" height="70" viewBox="0 0 70 70">
  <path id="Path_65" data-name="Path 65" d="M0,0H70V70H0Z" fill="none"/>
  <path id="Path_66" data-name="Path 66" d="M51.583,60.333H10.75A8.75,8.75,0,0,1,2,51.583V4.917A2.917,2.917,0,0,1,4.917,2H45.75a2.917,2.917,0,0,1,2.917,2.917V25.333H60.333v26.25A8.75,8.75,0,0,1,51.583,60.333ZM48.667,31.167V51.583a2.917,2.917,0,0,0,5.833,0V31.167ZM10.75,13.667v17.5h17.5v-17.5Zm0,20.417v5.833H39.917V34.083Zm0,8.75v5.833H39.917V42.833ZM16.583,19.5h5.833v5.833H16.583Z" transform="translate(3.833 3.833)" fill="#ffec00"/>
</svg>
