<svg width="30" height="29" viewBox="0 0 30 29" fill="none" xmlns="http://www.w3.org/2000/svg">
<path fill-rule="evenodd" clip-rule="evenodd" d="M10.5631 20.05C13.142 21.9535 16.9196 21.9535 19.4984 20.05C20.3097 19.4519 20.9353 18.6853 21.3177 17.8209C19.2364 18.1052 17.1358 18.269 15.0297 18.311C12.9236 18.2689 10.823 18.1052 8.7417 17.8209C9.1247 18.6855 9.7511 19.4521 10.5631 20.05Z" stroke="white" stroke-width="1.5" stroke-linecap="round" stroke-linejoin="round"/>
<path d="M19.8506 12.5975C20.0241 12.9737 20.4696 13.1381 20.8457 12.9646C21.2219 12.7912 21.3863 12.3457 21.2129 11.9695L19.8506 12.5975ZM15.9206 11.9695C15.7472 12.3457 15.9116 12.7912 16.2878 12.9646C16.6639 13.1381 17.1094 12.9737 17.2829 12.5975L15.9206 11.9695ZM7.99174 12.2835C7.99174 12.6978 8.32752 13.0335 8.74174 13.0335C9.15595 13.0335 9.49174 12.6978 9.49174 12.2835H7.99174ZM9.49174 10.4029C9.49174 9.98874 9.15595 9.65295 8.74174 9.65295C8.32752 9.65295 7.99174 9.98874 7.99174 10.4029H9.49174ZM24.3632 4.85574L23.8446 5.39758L24.3632 4.85574ZM21.2129 11.9695C20.7411 10.9462 19.6963 10.3077 18.5667 10.3077V11.8077C19.139 11.8077 19.6355 12.1307 19.8506 12.5975L21.2129 11.9695ZM18.5667 10.3077C17.4372 10.3077 16.3924 10.9462 15.9206 11.9695L17.2829 12.5975C17.498 12.1307 17.9945 11.8077 18.5667 11.8077V10.3077ZM9.49174 12.2835V10.4029H7.99174V12.2835H9.49174ZM27.6419 14.1642C27.6419 20.9897 21.8508 26.5784 14.6369 26.5784V28.0784C22.6164 28.0784 29.1419 21.8795 29.1419 14.1642H27.6419ZM14.6369 26.5784C7.42302 26.5784 1.63184 20.9897 1.63184 14.1642H0.131836C0.131836 21.8795 6.65734 28.0784 14.6369 28.0784V26.5784ZM1.63184 14.1642C1.63184 7.33875 7.42302 1.75004 14.6369 1.75004V0.250041C6.65734 0.250041 0.131836 6.44894 0.131836 14.1642H1.63184ZM14.6369 1.75004C18.0964 1.75004 21.408 3.0656 23.8446 5.39758L24.8817 4.3139C22.1592 1.70835 18.4735 0.250041 14.6369 0.250041V1.75004ZM23.8446 5.39758C26.2801 7.72849 27.6419 10.8827 27.6419 14.1642H29.1419C29.1419 10.4631 27.6054 6.92052 24.8817 4.3139L23.8446 5.39758Z" fill="white"/>
</svg>
