<svg id="Setting" xmlns="http://www.w3.org/2000/svg" width="80" height="80" viewBox="0 0 80 80">
  <path id="Path_61" data-name="Path 61" d="M0,0H80V80H0Z" fill="none"/>
  <path id="Path_62" data-name="Path 62" d="M13.117,9.324A33.3,33.3,0,0,1,24.924,2.5,13.31,13.31,0,0,0,35.337,7.5,13.31,13.31,0,0,0,45.75,2.5,33.3,33.3,0,0,1,57.557,9.324a13.334,13.334,0,0,0,10.417,18.03,33.477,33.477,0,0,1,0,13.633A13.336,13.336,0,0,0,57.557,59.02,33.3,33.3,0,0,1,45.75,65.844a13.335,13.335,0,0,0-20.827,0,33.3,33.3,0,0,1-11.807-6.823,13.31,13.31,0,0,0-.873-11.517A13.31,13.31,0,0,0,2.7,40.994a33.477,33.477,0,0,1,0-13.637,13.31,13.31,0,0,0,9.543-6.517,13.31,13.31,0,0,0,.873-11.513ZM40.337,42.83a10,10,0,1,0-13.66-3.66,10,10,0,0,0,13.66,3.66Z" transform="translate(4.663 5.826)" fill="#656554"/>
</svg>
