<svg width="32" height="31" viewBox="0 0 32 31" fill="none" xmlns="http://www.w3.org/2000/svg">
<path fill-rule="evenodd" clip-rule="evenodd" d="M11.7314 15.5C11.7314 13.0147 13.7462 11 16.2314 11C18.7167 11 20.7314 13.0147 20.7314 15.5C20.7314 17.9853 18.7167 20 16.2314 20C13.7462 20 11.7314 17.9853 11.7314 15.5ZM14.2964 15.5C14.2964 16.5687 15.1628 17.435 16.2314 17.435C17.295 17.4228 18.1543 16.5636 18.1664 15.5C18.1664 14.4313 17.3001 13.565 16.2314 13.565C15.1628 13.565 14.2964 14.4313 14.2964 15.5Z" fill="white"/>
<path fill-rule="evenodd" clip-rule="evenodd" d="M31.7314 19.9286H28.7643C28.6101 20.373 28.4328 20.8091 28.2329 21.235L30.3143 23.3386L24.07 29.5829L21.9664 27.5014C21.5406 27.7013 21.1045 27.8787 20.66 28.0329V31H11.8029V28.0329C11.3584 27.8787 10.9223 27.7013 10.4964 27.5014L8.39287 29.5829L2.14859 23.3386L4.23002 21.235C4.03013 20.8091 3.85275 20.373 3.69859 19.9286H0.731445V11.0714H3.69859C3.85359 10.6286 4.03073 10.2079 4.23002 9.765L2.14859 7.66143L8.39287 1.41714L10.4964 3.49857C10.9393 3.29929 11.36 3.12214 11.8029 2.96714V0H20.66V2.96714C21.1029 3.12214 21.5236 3.29929 21.9664 3.49857L24.07 1.41714L30.3143 7.66143L28.2329 9.765C28.4322 10.2079 28.6093 10.6286 28.7643 11.0714H31.7314V19.9286ZM24.07 26.7707L27.5022 23.3386L25.775 21.6779L26.3729 20.4157C26.5505 20.0566 26.7058 19.6868 26.8379 19.3086L27.3029 17.98H29.7386V13.1086H27.3472L26.8822 11.78C26.7501 11.4017 26.5948 11.032 26.4172 10.6729L25.8193 9.41071L27.5022 7.70571L24.07 4.27357L22.365 5.95643L21.1029 5.35857C20.7437 5.18095 20.374 5.02566 19.9957 4.89357L18.6672 4.42857V1.99286H13.7957V4.42857L12.4672 4.84929C12.0889 4.98137 11.7192 5.13667 11.36 5.31429L10.0979 5.91214L8.39287 4.22929L5.00502 7.66143L6.68787 9.36643L6.09002 10.6286C5.9124 10.9877 5.7571 11.3575 5.62502 11.7357L5.16002 13.0643H2.7243V17.9357H5.16002L5.58073 19.2643C5.71282 19.6425 5.86811 20.0123 6.04573 20.3714L6.64359 21.6336L4.96073 23.3386L8.39287 26.7264L10.0979 25.0436L11.36 25.6414C11.7192 25.819 12.0889 25.9743 12.4672 26.1064L13.7957 26.5714V29.0071H18.6672V26.6157L19.9957 26.1507C20.374 26.0186 20.7437 25.8633 21.1029 25.6857L22.365 25.0879L24.07 26.7707Z" fill="white"/>
</svg>
