<svg width="42" height="29" viewBox="0 0 42 29" fill="none" xmlns="http://www.w3.org/2000/svg">
<path d="M6.55592 28.367H6.48347C6.01257 28.367 5.65034 28.0668 5.50545 27.504C5.39965 27.0623 5.35093 26.6081 5.36056 26.1532C5.36056 22.1383 8.29462 15.9471 8.29462 14.9715C6.70081 16.66 3.2234 20.7875 1.26736 21.4629C1.21072 21.4901 1.14864 21.5029 1.08625 21.5004H1.0138C0.72402 21.5004 0.542905 21.2753 0.470459 20.9751C0.470459 20.7875 0.579128 20.5999 0.832689 20.4498C3.76675 19.1365 9.74354 11.8196 10.6853 9.86842C12.3878 6.45387 13.7281 4.24004 14.7061 2.92675C14.9959 2.55153 15.2857 2.40144 15.5392 2.40144C15.9651 2.42151 16.3003 2.78529 16.2999 3.22693C16.302 3.38965 16.2509 3.54833 16.155 3.6772C11.3011 11.2943 8.65685 14.5212 6.70081 23.8643C6.48347 24.99 6.3748 25.778 6.3748 26.3033C6.3748 26.8661 6.48347 27.0912 6.70081 27.0912C7.20793 27.0537 8.11351 25.8905 9.30886 24.202C12.1705 20.1496 15.2494 14.0709 17.3504 10.056C17.4462 9.85505 17.6412 9.72519 17.8575 9.71833H17.9299C18.3646 9.71833 18.7993 10.0185 18.7993 10.3562V10.3937L18.7631 10.5063C17.5315 14.3711 15.8652 19.249 15.8652 23.3765C15.8652 25.5528 16.4448 26.5659 17.3866 26.5659H17.4953C18.6544 26.5659 20.3931 24.9149 22.3129 21.9882C26.8046 15.3092 29.4126 6.15369 29.4126 1.95117V1.91365C29.4126 1.1632 29.0504 0.863017 29.0504 0.562837C29.0504 0.30018 29.5213 0 29.7386 0H29.8111C30.0646 0 30.282 0.225135 30.3906 0.60036C30.4993 0.90054 30.5355 1.38833 30.5355 1.95117C30.5355 6.71653 27.203 18.8738 20.2844 26.0781C19.56 26.8286 18.4733 27.6541 17.459 27.6541H17.3504C16.6259 27.6541 15.9739 27.3539 15.5392 26.4909C15.0683 25.5153 14.851 24.3146 14.851 23.0013C14.851 20.1871 15.7203 16.8851 16.2274 14.5587C16.155 14.5587 9.56242 26.6035 7.28038 28.1044C7.06326 28.252 6.81451 28.3421 6.55592 28.367Z" fill="white"/>
<path fill-rule="evenodd" clip-rule="evenodd" d="M41.9115 17.2192C41.9115 17.0253 41.7466 16.8681 41.5432 16.8681C41.4622 16.8584 41.381 16.8842 41.3222 16.9383C40.1805 17.8863 33.7352 22.4156 31.1939 22.4156C30.3836 22.4156 30.1258 21.9592 30.2363 21.1867C30.2447 21.1465 30.2522 21.1075 30.2595 21.0699C30.3153 20.7797 30.3565 20.5657 30.7151 20.3792C32.5198 19.4312 36.7184 16.6925 36.7184 14.5507C36.7184 14.0592 36.4238 13.7783 35.9082 13.7783C33.1091 13.7783 28.9104 19.5716 28.9104 21.7836C28.9104 22.7668 29.647 23.5041 30.6783 23.5041C33.2932 23.5041 39.1861 19.8525 41.7642 17.465C41.8747 17.3596 41.9115 17.2894 41.9115 17.2192ZM33.9929 16.9418L32.1146 18.592C31.7831 18.8343 31.1938 19.2205 31.0097 19.224C31.3043 18.592 32.5566 17.0471 33.4037 16.2747C34.3244 15.4671 35.0242 14.9404 35.2083 15.116C35.3925 15.2916 34.84 16.064 33.9929 16.9418Z" fill="white"/>
</svg>
