<svg id="Shop_inactive" data-name="Shop/inactive" xmlns="http://www.w3.org/2000/svg" width="90" height="90" viewBox="0 0 90 90">
  <path id="Path_5" data-name="Path 5" d="M0,0H90V90H0Z" fill="none"/>
  <path id="Path_6" data-name="Path 6" d="M73.25,38.173V73.25A3.75,3.75,0,0,1,69.5,77H9.5a3.75,3.75,0,0,1-3.75-3.75V38.173A14.944,14.944,0,0,1,2,28.25V5.75A3.75,3.75,0,0,1,5.75,2h67.5A3.75,3.75,0,0,1,77,5.75v22.5A14.961,14.961,0,0,1,73.25,38.173ZM47,28.25a3.75,3.75,0,0,1,7.5,0,7.5,7.5,0,1,0,15,0V9.5H9.5V28.25a7.5,7.5,0,0,0,15,0,3.75,3.75,0,1,1,7.5,0,7.5,7.5,0,0,0,15,0Z" transform="translate(5.5 5.5)" fill="gray"/>
</svg>
