<svg width="31" height="31" viewBox="0 0 31 31" fill="none" xmlns="http://www.w3.org/2000/svg">
<path fill-rule="evenodd" clip-rule="evenodd" d="M8.625 9.78125C8.625 9.01046 8.93119 8.27125 9.47622 7.72622C10.0212 7.18119 10.7605 6.875 11.5312 6.875H13.4688C14.2395 6.875 14.9788 7.18119 15.5238 7.72622C16.0688 8.27125 16.375 9.01046 16.375 9.78125V11.7188C16.375 12.4895 16.0688 13.2288 15.5238 13.7738C14.9788 14.3188 14.2395 14.625 13.4688 14.625V16.5625H18.3125C18.5694 16.5625 18.8158 16.6646 18.9975 16.8462C19.1792 17.0279 19.2812 17.2743 19.2812 17.5312V19.4688C19.2812 19.7257 19.1792 19.9721 18.9975 20.1538C18.8158 20.3354 18.5694 20.4375 18.3125 20.4375C18.0556 20.4375 17.8092 20.3354 17.6275 20.1538C17.4458 19.9721 17.3438 19.7257 17.3438 19.4688V18.5H7.65625V19.4688C7.65625 19.7257 7.55419 19.9721 7.37251 20.1538C7.19083 20.3354 6.94443 20.4375 6.6875 20.4375C6.43057 20.4375 6.18417 20.3354 6.00249 20.1538C5.82081 19.9721 5.71875 19.7257 5.71875 19.4688V17.5312C5.71875 17.2743 5.82081 17.0279 6.00249 16.8462C6.18417 16.6646 6.43057 16.5625 6.6875 16.5625H11.5312V14.625C10.7605 14.625 10.0212 14.3188 9.47622 13.7738C8.93119 13.2288 8.625 12.4895 8.625 11.7188V9.78125ZM2.8125 25.2812C2.8125 24.5105 3.11869 23.7712 3.66372 23.2262C4.20875 22.6812 4.94796 22.375 5.71875 22.375H7.65625C8.42704 22.375 9.16625 22.6812 9.71128 23.2262C10.2563 23.7712 10.5625 24.5105 10.5625 25.2812V27.2188C10.5625 27.9895 10.2563 28.7288 9.71128 29.2738C9.16625 29.8188 8.42704 30.125 7.65625 30.125H5.71875C4.94796 30.125 4.20875 29.8188 3.66372 29.2738C3.11869 28.7288 2.8125 27.9895 2.8125 27.2188V25.2812ZM14.4375 25.2812C14.4375 24.5105 14.7437 23.7712 15.2887 23.2262C15.8337 22.6812 16.573 22.375 17.3438 22.375H19.2812C20.052 22.375 20.7913 22.6812 21.3363 23.2262C21.8813 23.7712 22.1875 24.5105 22.1875 25.2812V27.2188C22.1875 27.9895 21.8813 28.7288 21.3363 29.2738C20.7913 29.8188 20.052 30.125 19.2812 30.125H17.3438C16.573 30.125 15.8337 29.8188 15.2887 29.2738C14.7437 28.7288 14.4375 27.9895 14.4375 27.2188V25.2812Z" fill="white"/>
</svg>
