<svg xmlns="http://www.w3.org/2000/svg" width="70" height="70" viewBox="0 0 70 70">
  <g id="Upload_Active" data-name="Upload/Active" transform="translate(-620 -252)">
    <g id="gallery-import" transform="translate(620 252)">
      <path id="Vector" d="M14.5,20.417H5.921C2.217,20.417,0,18.2,0,14.5V5.921C0,2.217,2.217,0,5.921,0H14.5c3.7,0,5.921,2.217,5.921,5.921V14.5C20.417,18.2,18.2,20.417,14.5,20.417Zm.642-9.654a1.831,1.831,0,0,0-2.567,0l-.525.525V4.754a1.837,1.837,0,1,0-3.675,0v6.533l-.525-.525a1.815,1.815,0,0,0-2.567,2.567l3.646,3.646a1.794,1.794,0,0,0,.554.35c.058.029.117.029.175.058a1.209,1.209,0,0,0,.467.088H10.3a1.39,1.39,0,0,0,.583-.117h.058a1.655,1.655,0,0,0,.525-.35c.029-.029.029-.029.058-.029l3.646-3.646A1.8,1.8,0,0,0,15.138,10.763Z" transform="translate(46.667 2.917)"/>
      <path id="Vector-2" data-name="Vector" d="M13.883,6.942A6.942,6.942,0,1,1,6.942,0,6.942,6.942,0,0,1,13.883,6.942Z" transform="translate(19.308 16.392)"/>
      <path id="Vector-3" data-name="Vector" d="M55.329,17.5H53.958V30.946l-.379-.321a6.5,6.5,0,0,0-8.225,0L33.221,41.038a6.5,6.5,0,0,1-8.225,0L24,40.221a6.478,6.478,0,0,0-7.7-.408L5.4,47.133a15.554,15.554,0,0,1-1.021-5.746V16.946c0-8.225,4.346-12.571,12.571-12.571H40.833V3A6.1,6.1,0,0,1,41.5,0H16.946C6.329,0,0,6.329,0,16.946V41.388a19.609,19.609,0,0,0,1.633,8.283c2.508,5.542,7.875,8.662,15.312,8.662H41.388C52,58.333,58.333,52,58.333,41.388V16.829A6.1,6.1,0,0,1,55.329,17.5Z" transform="translate(5.833 5.833)"/>
      <path id="Vector-4" data-name="Vector" d="M0,0H70V70H0Z" fill="none" opacity="0"/>
    </g>
  </g>
</svg>
