<svg xmlns="http://www.w3.org/2000/svg" width="70" height="70" viewBox="0 0 70 70">
  <g id="Watch" transform="translate(-424 -318)">
    <g id="clock" transform="translate(424 318)">
      <path id="Vector" d="M21.583,0l-.642,3.15c-1.429,5.542-4.637,7-8.575,7H9.187C5.25,10.15,2.013,8.692.613,3.121L0,0A21.6,21.6,0,0,0,10.762,2.858,21.438,21.438,0,0,0,21.583,0Z" transform="translate(24.237 54.017)" fill="#656554"/>
      <path id="Vector-2" data-name="Vector" d="M21.642,10.208a21.333,21.333,0,0,0-10.85-2.917A21.468,21.468,0,0,0,0,10.179l.642-3.15C2.042,1.458,5.279,0,9.217,0H12.4c3.938,0,7.146,1.458,8.575,7Z" transform="translate(24.208 5.833)" fill="#656554"/>
      <path id="Vector-3" data-name="Vector" d="M18.958,0A18.965,18.965,0,0,0,7.379,33.979h.029A18.927,18.927,0,0,0,30.6,33.921h.029A18.971,18.971,0,0,0,18.958,0Zm5.629,25.9a2.183,2.183,0,0,1-3.092,0l-4.083-4.083a2.185,2.185,0,0,1-.642-1.546V12.133a2.187,2.187,0,1,1,4.375,0v7.233l3.442,3.442A2.2,2.2,0,0,1,24.588,25.9Z" transform="translate(16.042 16.042)" fill="#656554"/>
      <path id="Vector-4" data-name="Vector" d="M0,0H70V70H0Z" transform="translate(70 70) rotate(180)" fill="none" opacity="0"/>
    </g>
  </g>
</svg>
