<svg width="26" height="39" viewBox="0 0 26 39" fill="none" xmlns="http://www.w3.org/2000/svg">
<path fill-rule="evenodd" clip-rule="evenodd" d="M13.8099 25.1682V21.1438C13.975 21.3737 14.1524 21.5909 14.3403 21.7957C15.0077 22.5212 15.8701 23.1282 17.1031 23.4658L20.9864 24.4014C21.2727 24.4697 21.559 24.2883 21.6257 23.9956C21.6679 23.8016 21.6047 23.6095 21.4747 23.4802L18.7593 20.5296C18.2798 20.0393 17.7881 19.6802 17.2892 19.4162L17.3454 19.4036C18.7576 19.0642 20.1662 18.3782 21.5116 17.0026L25.7128 12.4376C25.9113 12.2203 25.9025 11.8773 25.6882 11.6708C25.5547 11.5415 25.3721 11.4984 25.2052 11.5379L19.2283 12.9781C17.904 13.3427 16.866 13.9138 16.0176 14.6123L16.0352 14.5549C16.5744 12.7213 16.7307 10.6723 16.0967 8.24433L13.7853 0.387572C13.701 0.100239 13.4059 -0.0631814 13.1249 0.0230185C12.9545 0.0750976 12.8193 0.211581 12.7683 0.387572L10.4552 8.24613C9.81762 10.6741 9.97745 12.7231 10.5167 14.5567L10.5342 14.6141C9.68589 13.9156 8.64963 13.3427 7.32357 12.9799L1.34662 11.5397C1.17976 11.5002 0.998856 11.5433 0.863615 11.6726C0.649337 11.8773 0.640555 12.2221 0.840782 12.4394L5.04203 17.0044C6.38917 18.38 7.79603 19.066 9.20816 19.4054L9.26436 19.418C8.76731 19.682 8.27376 20.0411 7.79603 20.5332L5.07892 23.4838C4.94895 23.6131 4.88572 23.8052 4.92963 23.9992C4.99812 24.2919 5.28266 24.4733 5.56895 24.405L9.45229 23.4694C10.6835 23.1318 11.5459 22.5248 12.2151 21.7993C12.403 21.5909 12.5822 21.3719 12.7455 21.1438V25.1682C11.2104 25.2993 9.82991 25.9907 8.80068 27.0413C7.65376 28.2122 6.94594 29.832 6.94594 31.6189C6.94594 33.4057 7.65552 35.0256 8.80068 36.1964C9.94584 37.3673 11.5301 38.0928 13.2777 38.0928C15.0253 38.0928 16.6095 37.3673 17.7547 36.1964C18.8998 35.0256 19.6094 33.4057 19.6094 31.6189C19.6094 29.832 18.8998 28.2122 17.7547 27.0413C16.7272 25.9907 15.3467 25.2993 13.8099 25.1682ZM13.2759 2.42945L11.4827 8.52989C10.9066 10.7316 11.0471 12.5885 11.5371 14.246C11.9182 15.5372 12.5119 16.7261 13.1459 17.8664L13.2777 18.0927L13.4112 17.8628C14.0435 16.7243 14.6371 15.5372 15.0182 14.246C15.5065 12.5885 15.6488 10.7316 15.0727 8.52989L13.2759 2.42945ZM12.2451 18.441L12.3557 18.6386C11.3932 18.6314 10.4132 18.5775 9.44891 18.3477C8.21593 18.0513 6.98471 17.4497 5.80267 16.2465L2.82386 13.0104L7.04794 14.0287C8.66381 14.4723 9.78789 15.2624 10.6591 16.2088C11.2826 16.8859 11.7849 17.6563 12.2451 18.441ZM14.3104 18.4375L14.1962 18.6386C15.1604 18.6296 16.1388 18.5775 17.103 18.3459C18.3395 18.0478 19.5725 17.4462 20.758 16.234L23.7281 13.0104L19.504 14.0287C17.8899 14.4723 16.7623 15.2624 15.8929 16.2088C15.2711 16.8859 14.7688 17.6545 14.3104 18.4375ZM8.54428 21.3018L7.04083 22.9325L9.18185 22.4171C10.1918 22.1387 10.8978 21.6449 11.4405 21.054C11.7918 20.6733 12.0816 20.2441 12.3503 19.8005C11.8428 19.8149 11.3334 19.8598 10.8328 19.9801C10.0583 20.1651 9.28723 20.5422 8.54428 21.3018ZM13.2776 26.235C14.7319 26.235 16.0492 26.8384 17.0029 27.8117C17.9549 28.7869 18.545 30.1337 18.545 31.6207C18.545 33.1076 17.9549 34.4563 17.0029 35.4297C16.0492 36.4048 14.7319 37.0064 13.2776 37.0064C11.8234 37.0064 10.5061 36.403 9.55237 35.4297C8.60041 34.4563 8.01027 33.1076 8.01027 31.6207C8.01027 30.1337 8.60041 28.7869 9.55237 27.8117C10.5061 26.8384 11.8234 26.235 13.2776 26.235ZM12.3593 32.1648H13.2761H14.1929C14.4599 32.1648 14.7041 32.2779 14.8814 32.4575C15.0588 32.6371 15.166 32.8867 15.166 33.1615C15.1642 33.4255 15.0624 33.6787 14.8797 33.8636C14.7041 34.0468 14.4599 34.1581 14.1929 34.1581H12.3575C12.0993 34.1581 11.8499 34.0522 11.669 33.8636C11.4916 33.6841 11.3827 33.4344 11.3827 33.1615C11.3827 32.8616 11.1456 32.6173 10.8523 32.6173C10.559 32.6173 10.3201 32.8616 10.3201 33.1615C10.3201 33.7325 10.5485 34.2551 10.9191 34.6323C11.2897 35.0094 11.7973 35.2446 12.3575 35.2446H12.7439V35.769C12.7439 36.0689 12.9828 36.3131 13.2761 36.3131C13.5694 36.3131 13.8083 36.0689 13.8083 35.769V35.2446H14.1947C14.7567 35.2446 15.2661 35.0094 15.6349 34.6323C16.0038 34.2533 16.2339 33.7325 16.2339 33.1597C16.2339 32.5868 16.0038 32.066 15.6349 31.6889V31.6871C15.2661 31.31 14.755 31.0747 14.1947 31.0747H12.3593C12.1011 31.0747 11.8535 30.9688 11.6708 30.782C11.4934 30.6042 11.3845 30.3546 11.3845 30.0798C11.3845 29.8176 11.4881 29.5644 11.6708 29.3776C11.8464 29.1963 12.0906 29.0849 12.3593 29.0849H14.1982C14.4564 29.0867 14.7023 29.1909 14.885 29.3776C15.0624 29.5572 15.1712 29.8069 15.1712 30.0798C15.1712 30.3797 15.4101 30.624 15.7034 30.624C15.9967 30.624 16.2356 30.3797 16.2356 30.0798C16.2356 29.5052 16.0055 28.9844 15.6367 28.6072C15.2678 28.2301 14.7585 27.9949 14.1965 27.9949H13.8101V27.4687C13.8101 27.1688 13.5712 26.9245 13.2779 26.9245C12.9846 26.9245 12.7457 27.1688 12.7457 27.4687V27.9949H12.3593C11.799 27.9949 11.2914 28.2301 10.9208 28.6072C10.552 28.9862 10.3219 29.5069 10.3219 30.0798C10.3219 30.6527 10.5502 31.1735 10.9208 31.5524C11.2914 31.9313 11.799 32.1648 12.3593 32.1648ZM18.0076 21.3018L19.5093 22.9325L17.37 22.4171C16.3601 22.1387 15.6576 21.6449 15.1131 21.054C14.7618 20.6733 14.4703 20.2441 14.2033 19.8005C14.7109 19.8167 15.2202 19.8598 15.7208 19.9801C16.4936 20.1651 17.2647 20.544 18.0076 21.3018Z" fill="white"/>
</svg>
