<svg xmlns="http://www.w3.org/2000/svg" width="60" height="60" viewBox="0 0 60 60">
  <g id="Wishlist_Gray" data-name="Wishlist Gray" transform="translate(-236 -188)">
    <g id="heart" transform="translate(236 188)">
      <path id="Vector" d="M36.1,0A13.872,13.872,0,0,0,25,5.575a13.879,13.879,0,0,0-25,8.4A26.7,26.7,0,0,0,1.3,22.25c3.95,12.5,16.125,19.975,22.15,22.025a5.451,5.451,0,0,0,3.1,0c6.025-2.05,18.2-9.525,22.15-22.025A26.7,26.7,0,0,0,50,13.975,13.934,13.934,0,0,0,36.1,0Z" transform="translate(5 7.75)" fill="#656554"/>
      <path id="Vector-2" data-name="Vector" d="M0,0H60V60H0Z" transform="translate(60 60) rotate(180)" fill="none" opacity="0"/>
    </g>
  </g>
</svg>
